<?xml version="1.0" encoding="utf-8"?>
<!-- Generator: Adobe Illustrator 23.0.0, SVG Export Plug-In . SVG Version: 6.00 Build 0)  -->
<svg version="1.1" id="Capa_1" xmlns="http://www.w3.org/2000/svg" xmlns:xlink="http://www.w3.org/1999/xlink" x="0px" y="0px"
	 viewBox="0 0 33 32" style="enable-background:new 0 0 33 32;" xml:space="preserve">
<style type="text/css">
	.st0{fill:#FFFFFF;}
</style>
<g>
	<path class="st0" d="M6.1,28.68c0,0-0.03,0.67,0.61,0.67c0.79,0,7.31-0.01,7.31-0.01l0.01-6.23c0,0-0.1-1.03,0.86-1.03h3.03
		c1.13,0,1.06,1.03,1.06,1.03l-0.01,6.21c0,0,6.18,0,7.16,0c0.8,0,0.77-0.84,0.77-0.84V17.01L16.81,7.68L6.1,17.01V28.68z"/>
	<path class="st0" d="M2,16.14c0,0,0.91,1.74,2.89,0L16.74,5.72l11.11,10.35c2.29,1.72,3.15,0,3.15,0L16.74,2.64L2,16.14z"/>
	<path class="st0" d="M17.93,5.7h-2.86l0.01,3.6l2.85,2.51V5.7z"/>
</g>
</svg>
