<?xml version="1.0" encoding="utf-8"?>
<!-- Generator: Adobe Illustrator 23.0.0, SVG Export Plug-In . SVG Version: 6.00 Build 0)  -->
<svg version="1.1" id="Capa_1" xmlns="http://www.w3.org/2000/svg" xmlns:xlink="http://www.w3.org/1999/xlink" x="0px" y="0px"
	 viewBox="0 0 33 32" style="enable-background:new 0 0 33 32;" xml:space="preserve">
<style type="text/css">
	.st0{fill:#FFFFFF;}
</style>
<path class="st0" d="M28.57,28.13h-0.43V11.87C28.67,11.39,29,10.7,29,9.92c0-0.08-0.03-0.16-0.07-0.23l-4.33-6.5
	C24.51,3.07,24.38,3,24.23,3H7.77C7.62,3,7.49,3.07,7.41,3.19l-4.33,6.5C3.03,9.76,3,9.84,3,9.92c0,0.77,0.33,1.47,0.87,1.94v16.27
	H3.43C3.19,28.13,3,28.33,3,28.57C3,28.81,3.19,29,3.43,29h25.13c0.24,0,0.43-0.19,0.43-0.43C29,28.33,28.81,28.13,28.57,28.13z
	 M19.36,10.37h3.67c0.15,0,0.26,0.15,0.21,0.29c-0.3,0.84-1.1,1.44-2.04,1.44c-0.94,0-1.74-0.6-2.04-1.44
	C19.11,10.52,19.21,10.37,19.36,10.37z M14.64,10.37h2.72c0.16,0,0.27,0.16,0.2,0.31c-0.28,0.59-0.87,0.99-1.56,0.99
	c-0.69,0-1.28-0.41-1.56-0.99C14.37,10.53,14.48,10.37,14.64,10.37z M8.96,10.37h3.67c0.15,0,0.26,0.15,0.21,0.29
	c-0.3,0.84-1.1,1.44-2.04,1.44c-0.94,0-1.74-0.6-2.04-1.44C8.71,10.52,8.81,10.37,8.96,10.37z M4.03,10.67
	c-0.07-0.14,0.04-0.31,0.2-0.31h2.73c0.16,0,0.27,0.16,0.2,0.31c-0.28,0.59-0.87,0.99-1.56,0.99C4.91,11.67,4.31,11.26,4.03,10.67z
	 M9.93,27.92c0,0.12-0.1,0.22-0.22,0.22H4.95c-0.12,0-0.22-0.1-0.22-0.22v-13c0-0.12,0.1-0.22,0.22-0.22h4.77
	c0.12,0,0.22,0.1,0.22,0.22L9.93,27.92L9.93,27.92z M27.27,22.28c0,0.12-0.1,0.22-0.22,0.22H11.02c-0.12,0-0.22-0.1-0.22-0.22v-7.37
	c0-0.12,0.1-0.22,0.22-0.22h16.03c0.12,0,0.22,0.1,0.22,0.22V22.28z M27.97,10.67c-0.28,0.59-0.87,0.99-1.57,0.99
	c-0.69,0-1.28-0.41-1.56-0.99c-0.07-0.14,0.04-0.31,0.2-0.31h2.73C27.92,10.37,28.03,10.53,27.97,10.67z"/>
</svg>
